<?xml version="1.0" standalone="no"?>
<!DOCTYPE svg PUBLIC "-//W3C//DTD SVG 20010904//EN"
 "http://www.w3.org/TR/2001/REC-SVG-20010904/DTD/svg10.dtd">
<svg version="1.0" xmlns="http://www.w3.org/2000/svg"
 width="217.000000pt" height="232.000000pt" viewBox="0 0 217.000000 232.000000"
 preserveAspectRatio="xMidYMid meet">

<g transform="translate(0.000000,232.000000) scale(0.100000,-0.100000)"
fill="#000000" stroke="none">
<path d="M464 1951 c-53 -13 -94 -44 -115 -88 -19 -39 -20 -57 -17 -235 3
-181 4 -195 25 -224 39 -54 83 -69 208 -69 96 0 116 3 155 24 25 13 48 29 52
35 4 6 8 73 8 149 l0 137 -110 0 -110 0 0 -60 c0 -53 2 -60 20 -60 16 0 20 -7
20 -31 0 -17 -5 -39 -10 -50 -13 -23 -55 -25 -64 -3 -3 9 -6 87 -6 174 0 166
5 186 47 178 13 -2 19 -14 21 -46 l3 -42 95 0 94 0 0 74 c0 73 0 75 -33 95
-68 42 -200 61 -283 42z"/>
<path d="M991 1951 c-40 -11 -77 -37 -105 -75 -19 -25 -21 -44 -24 -219 -3
-184 -2 -194 20 -236 35 -68 78 -86 208 -86 119 0 157 14 197 75 22 31 23 42
23 235 0 193 -1 204 -23 236 -33 50 -87 72 -182 75 -44 2 -95 -1 -114 -5z
m129 -147 c6 -14 10 -85 10 -159 0 -74 -4 -145 -10 -159 -10 -28 -38 -34 -58
-14 -17 17 -17 329 0 346 20 20 48 14 58 -14z"/>
<path d="M1390 1897 c0 -31 5 -59 10 -62 6 -4 10 -78 10 -190 0 -112 -4 -186
-10 -190 -5 -3 -10 -31 -10 -61 l0 -56 183 4 c208 3 233 11 267 79 20 38 21
55 18 234 -3 177 -5 196 -24 221 -49 66 -58 69 -260 72 l-184 4 0 -55z m275
-93 c14 -14 16 -38 13 -166 -3 -159 -6 -168 -55 -168 -23 0 -23 0 -23 175 l0
175 24 0 c14 0 32 -7 41 -16z"/>
<path d="M860 1261 c-47 -25 -59 -63 -59 -199 -1 -136 12 -176 63 -197 45 -19
146 -19 191 -1 53 23 60 44 60 197 0 152 -8 179 -60 204 -47 21 -151 20 -195
-4z m124 -87 c3 -9 6 -59 6 -113 0 -108 -14 -147 -44 -122 -13 11 -16 35 -16
126 0 61 3 115 7 118 12 13 41 7 47 -9z"/>
<path d="M335 1228 c9 -54 9 -268 0 -328 l-7 -45 67 0 66 0 -6 95 -5 95 25
-88 c30 -107 29 -104 57 -102 20 1 25 13 48 101 l25 99 3 -49 c2 -28 -2 -60
-8 -71 -6 -12 -10 -34 -8 -49 3 -28 4 -28 81 -29 l79 -2 -7 45 c-9 60 -9 274
0 328 l7 42 -85 0 -85 0 -18 -75 c-10 -41 -20 -72 -24 -70 -4 2 -13 36 -20 75
l-13 70 -90 0 -89 0 7 -42z"/>
<path d="M1175 1062 l0 -207 133 5 c131 5 134 5 158 33 23 27 24 34 24 173 l0
146 -29 29 -29 29 -129 0 -128 0 0 -208z m183 116 c19 -19 16 -202 -4 -223
-31 -31 -39 -12 -42 100 -1 60 0 115 2 122 7 16 28 17 44 1z"/>
<path d="M1555 1062 l0 -207 153 0 152 0 0 78 0 77 -60 0 c-60 0 -60 0 -60
-29 0 -26 -14 -41 -41 -41 -5 0 -9 20 -9 45 l0 45 45 0 45 0 0 40 0 40 -45 0
-45 0 0 41 c0 33 3 40 18 37 9 -2 21 -13 27 -26 8 -19 17 -22 67 -22 l58 0 0
65 0 65 -152 0 -153 0 0 -208z"/>
<path d="M662 732 c-34 -10 -90 -59 -108 -95 -34 -65 -17 -163 38 -214 55 -52
67 -53 501 -53 430 0 449 2 500 49 78 72 84 178 14 258 -56 64 -53 63 -509 62
-227 -1 -423 -4 -436 -7z m896 -59 c93 -70 74 -207 -36 -255 -77 -34 -158 -1
-194 78 -63 143 106 272 230 177z m-600 -19 c20 -14 22 -24 22 -99 0 -75 -2
-85 -22 -99 -33 -23 -103 -21 -128 4 -16 16 -20 33 -20 95 0 62 4 79 20 95 25
25 95 27 128 4z m125 -21 l15 -38 1 38 c1 36 2 37 37 37 l37 0 -7 -37 c-3 -21
-6 -73 -6 -115 l0 -78 -33 0 c-30 0 -35 5 -55 48 l-21 47 6 -47 5 -48 -33 0
-34 0 0 115 0 115 36 0 c33 0 38 -4 52 -37z"/>
<path d="M890 555 c0 -37 4 -65 10 -65 6 0 10 28 10 65 0 37 -4 65 -10 65 -6
0 -10 -28 -10 -65z"/>
</g>
</svg>
